<mxfile host="Electron" modified="2023-12-19T10:45:41.605Z" agent="Mozilla/5.0 (Windows NT 10.0; Win64; x64) AppleWebKit/537.36 (KHTML, like Gecko) draw.io/22.1.2 Chrome/114.0.5735.289 Electron/25.9.4 Safari/537.36" etag="m_pFZcrM1m2xCyAipEaH" version="22.1.2" type="device">
  <diagram name="Sida-1" id="wteTVdkG6ozo6hXP2NF9">
    <mxGraphModel dx="1018" dy="686" grid="1" gridSize="10" guides="1" tooltips="1" connect="1" arrows="1" fold="1" page="1" pageScale="1" pageWidth="827" pageHeight="1169" math="0" shadow="0">
      <root>
        <mxCell id="0" />
        <mxCell id="1" parent="0" />
        <mxCell id="aPHh07h3TI66higt3YWN-1" value="" style="rounded=0;whiteSpace=wrap;html=1;fillColor=#f8cecc;strokeColor=#b85450;" vertex="1" parent="1">
          <mxGeometry x="1241" y="310" width="39" height="30" as="geometry" />
        </mxCell>
        <mxCell id="pEieKfcEpMUqXFXGFW6c-1" value="" style="rounded=0;whiteSpace=wrap;html=1;fillColor=#fff2cc;strokeColor=#d6b656;" parent="1" vertex="1">
          <mxGeometry x="680" y="340" width="40" height="30" as="geometry" />
        </mxCell>
        <mxCell id="k8w1OeWW7QCH533B3LMb-30" value="" style="rounded=0;whiteSpace=wrap;html=1;fillColor=#fff2cc;strokeColor=#d6b656;" parent="1" vertex="1">
          <mxGeometry x="1160" y="340" width="80" height="30" as="geometry" />
        </mxCell>
        <mxCell id="k8w1OeWW7QCH533B3LMb-28" value="" style="rounded=0;whiteSpace=wrap;html=1;fillColor=#dae8fc;strokeColor=#6c8ebf;" parent="1" vertex="1">
          <mxGeometry x="1080" y="370" width="80" height="30" as="geometry" />
        </mxCell>
        <mxCell id="k8w1OeWW7QCH533B3LMb-27" value="" style="rounded=0;whiteSpace=wrap;html=1;fillColor=#d5e8d4;strokeColor=#82b366;" parent="1" vertex="1">
          <mxGeometry x="960" y="280" width="120" height="30" as="geometry" />
        </mxCell>
        <mxCell id="k8w1OeWW7QCH533B3LMb-26" value="" style="rounded=0;whiteSpace=wrap;html=1;fillColor=#f8cecc;strokeColor=#b85450;" parent="1" vertex="1">
          <mxGeometry x="840" y="310" width="120" height="30" as="geometry" />
        </mxCell>
        <mxCell id="k8w1OeWW7QCH533B3LMb-25" value="" style="rounded=0;whiteSpace=wrap;html=1;fillColor=#fff2cc;strokeColor=#d6b656;" parent="1" vertex="1">
          <mxGeometry x="800" y="340" width="40" height="30" as="geometry" />
        </mxCell>
        <mxCell id="k8w1OeWW7QCH533B3LMb-24" value="" style="rounded=0;whiteSpace=wrap;html=1;fillColor=#dae8fc;strokeColor=#6c8ebf;" parent="1" vertex="1">
          <mxGeometry x="720" y="370" width="80" height="30" as="geometry" />
        </mxCell>
        <mxCell id="k8w1OeWW7QCH533B3LMb-17" value="" style="rounded=0;whiteSpace=wrap;html=1;fillColor=#dae8fc;strokeColor=#6c8ebf;" parent="1" vertex="1">
          <mxGeometry x="480" y="370" width="80" height="30" as="geometry" />
        </mxCell>
        <mxCell id="k8w1OeWW7QCH533B3LMb-16" value="" style="rounded=0;whiteSpace=wrap;html=1;fillColor=#f8cecc;strokeColor=#b85450;" parent="1" vertex="1">
          <mxGeometry x="360" y="310" width="120" height="30" as="geometry" />
        </mxCell>
        <mxCell id="k8w1OeWW7QCH533B3LMb-18" value="" style="rounded=0;whiteSpace=wrap;html=1;fillColor=#d5e8d4;strokeColor=#82b366;" parent="1" vertex="1">
          <mxGeometry x="560" y="280" width="120" height="30" as="geometry" />
        </mxCell>
        <mxCell id="k8w1OeWW7QCH533B3LMb-15" value="" style="rounded=0;whiteSpace=wrap;html=1;fillColor=#fff2cc;strokeColor=#d6b656;" parent="1" vertex="1">
          <mxGeometry x="280" y="340" width="80" height="30" as="geometry" />
        </mxCell>
        <mxCell id="k8w1OeWW7QCH533B3LMb-12" value="" style="rounded=0;whiteSpace=wrap;html=1;fillColor=#d5e8d4;strokeColor=#82b366;" parent="1" vertex="1">
          <mxGeometry x="160" y="280" width="120" height="30" as="geometry" />
        </mxCell>
        <mxCell id="k8w1OeWW7QCH533B3LMb-11" value="" style="rounded=0;whiteSpace=wrap;html=1;fillColor=#dae8fc;strokeColor=#6c8ebf;" parent="1" vertex="1">
          <mxGeometry x="80" y="370" width="80" height="30" as="geometry" />
        </mxCell>
        <mxCell id="lGC51vEPt79-bzWgV6Nz-1" value="" style="endArrow=none;html=1;rounded=0;" parent="1" edge="1">
          <mxGeometry width="50" height="50" relative="1" as="geometry">
            <mxPoint x="80" y="420" as="sourcePoint" />
            <mxPoint x="80" y="260" as="targetPoint" />
            <Array as="points" />
          </mxGeometry>
        </mxCell>
        <mxCell id="lGC51vEPt79-bzWgV6Nz-2" value="" style="endArrow=none;html=1;rounded=0;" parent="1" edge="1">
          <mxGeometry width="50" height="50" relative="1" as="geometry">
            <mxPoint x="120" y="420" as="sourcePoint" />
            <mxPoint x="120" y="260" as="targetPoint" />
            <Array as="points" />
          </mxGeometry>
        </mxCell>
        <mxCell id="lGC51vEPt79-bzWgV6Nz-3" value="" style="endArrow=none;html=1;rounded=0;" parent="1" edge="1">
          <mxGeometry width="50" height="50" relative="1" as="geometry">
            <mxPoint x="160" y="420" as="sourcePoint" />
            <mxPoint x="160" y="260" as="targetPoint" />
            <Array as="points" />
          </mxGeometry>
        </mxCell>
        <mxCell id="lGC51vEPt79-bzWgV6Nz-4" value="" style="endArrow=none;html=1;rounded=0;" parent="1" edge="1">
          <mxGeometry width="50" height="50" relative="1" as="geometry">
            <mxPoint x="200" y="420" as="sourcePoint" />
            <mxPoint x="200" y="260" as="targetPoint" />
            <Array as="points" />
          </mxGeometry>
        </mxCell>
        <mxCell id="lGC51vEPt79-bzWgV6Nz-5" value="" style="endArrow=none;html=1;rounded=0;" parent="1" edge="1">
          <mxGeometry width="50" height="50" relative="1" as="geometry">
            <mxPoint x="240" y="420" as="sourcePoint" />
            <mxPoint x="240" y="260" as="targetPoint" />
            <Array as="points" />
          </mxGeometry>
        </mxCell>
        <mxCell id="lGC51vEPt79-bzWgV6Nz-6" value="" style="endArrow=none;html=1;rounded=0;" parent="1" edge="1">
          <mxGeometry width="50" height="50" relative="1" as="geometry">
            <mxPoint x="280" y="420" as="sourcePoint" />
            <mxPoint x="280" y="260" as="targetPoint" />
            <Array as="points" />
          </mxGeometry>
        </mxCell>
        <mxCell id="lGC51vEPt79-bzWgV6Nz-7" value="" style="endArrow=none;html=1;rounded=0;" parent="1" edge="1">
          <mxGeometry width="50" height="50" relative="1" as="geometry">
            <mxPoint x="320" y="420" as="sourcePoint" />
            <mxPoint x="320" y="260" as="targetPoint" />
            <Array as="points" />
          </mxGeometry>
        </mxCell>
        <mxCell id="lGC51vEPt79-bzWgV6Nz-8" value="" style="endArrow=none;html=1;rounded=0;" parent="1" edge="1">
          <mxGeometry width="50" height="50" relative="1" as="geometry">
            <mxPoint x="360" y="420" as="sourcePoint" />
            <mxPoint x="360" y="260" as="targetPoint" />
            <Array as="points" />
          </mxGeometry>
        </mxCell>
        <mxCell id="lGC51vEPt79-bzWgV6Nz-9" value="" style="endArrow=none;html=1;rounded=0;" parent="1" edge="1">
          <mxGeometry width="50" height="50" relative="1" as="geometry">
            <mxPoint x="400" y="420" as="sourcePoint" />
            <mxPoint x="400" y="260" as="targetPoint" />
            <Array as="points" />
          </mxGeometry>
        </mxCell>
        <mxCell id="lGC51vEPt79-bzWgV6Nz-10" value="" style="endArrow=none;html=1;rounded=0;" parent="1" edge="1">
          <mxGeometry width="50" height="50" relative="1" as="geometry">
            <mxPoint x="440" y="420" as="sourcePoint" />
            <mxPoint x="440" y="260" as="targetPoint" />
            <Array as="points" />
          </mxGeometry>
        </mxCell>
        <mxCell id="lGC51vEPt79-bzWgV6Nz-11" value="" style="endArrow=none;html=1;rounded=0;" parent="1" edge="1">
          <mxGeometry width="50" height="50" relative="1" as="geometry">
            <mxPoint x="480" y="420" as="sourcePoint" />
            <mxPoint x="480" y="260" as="targetPoint" />
            <Array as="points" />
          </mxGeometry>
        </mxCell>
        <mxCell id="lGC51vEPt79-bzWgV6Nz-12" value="" style="endArrow=none;html=1;rounded=0;" parent="1" edge="1">
          <mxGeometry width="50" height="50" relative="1" as="geometry">
            <mxPoint x="520" y="420" as="sourcePoint" />
            <mxPoint x="520" y="260" as="targetPoint" />
            <Array as="points" />
          </mxGeometry>
        </mxCell>
        <mxCell id="lGC51vEPt79-bzWgV6Nz-13" value="" style="endArrow=none;html=1;rounded=0;" parent="1" edge="1">
          <mxGeometry width="50" height="50" relative="1" as="geometry">
            <mxPoint x="560" y="420" as="sourcePoint" />
            <mxPoint x="560" y="260" as="targetPoint" />
            <Array as="points" />
          </mxGeometry>
        </mxCell>
        <mxCell id="lGC51vEPt79-bzWgV6Nz-14" value="" style="endArrow=none;html=1;rounded=0;" parent="1" edge="1">
          <mxGeometry width="50" height="50" relative="1" as="geometry">
            <mxPoint x="600" y="420" as="sourcePoint" />
            <mxPoint x="600" y="260" as="targetPoint" />
            <Array as="points" />
          </mxGeometry>
        </mxCell>
        <mxCell id="lGC51vEPt79-bzWgV6Nz-15" value="" style="endArrow=none;html=1;rounded=0;" parent="1" edge="1">
          <mxGeometry width="50" height="50" relative="1" as="geometry">
            <mxPoint x="640" y="420" as="sourcePoint" />
            <mxPoint x="640" y="260" as="targetPoint" />
            <Array as="points" />
          </mxGeometry>
        </mxCell>
        <mxCell id="lGC51vEPt79-bzWgV6Nz-16" value="" style="endArrow=none;html=1;rounded=0;" parent="1" edge="1">
          <mxGeometry width="50" height="50" relative="1" as="geometry">
            <mxPoint x="680" y="420" as="sourcePoint" />
            <mxPoint x="680" y="260" as="targetPoint" />
            <Array as="points" />
          </mxGeometry>
        </mxCell>
        <mxCell id="lGC51vEPt79-bzWgV6Nz-17" value="" style="endArrow=none;html=1;rounded=0;" parent="1" edge="1">
          <mxGeometry width="50" height="50" relative="1" as="geometry">
            <mxPoint x="720" y="420" as="sourcePoint" />
            <mxPoint x="720" y="260" as="targetPoint" />
            <Array as="points" />
          </mxGeometry>
        </mxCell>
        <mxCell id="lGC51vEPt79-bzWgV6Nz-18" value="" style="endArrow=none;html=1;rounded=0;" parent="1" edge="1">
          <mxGeometry width="50" height="50" relative="1" as="geometry">
            <mxPoint x="760" y="420" as="sourcePoint" />
            <mxPoint x="760" y="260" as="targetPoint" />
            <Array as="points" />
          </mxGeometry>
        </mxCell>
        <mxCell id="lGC51vEPt79-bzWgV6Nz-19" value="" style="endArrow=none;html=1;rounded=0;" parent="1" edge="1">
          <mxGeometry width="50" height="50" relative="1" as="geometry">
            <mxPoint x="800" y="420" as="sourcePoint" />
            <mxPoint x="800" y="260" as="targetPoint" />
            <Array as="points" />
          </mxGeometry>
        </mxCell>
        <mxCell id="lGC51vEPt79-bzWgV6Nz-20" value="" style="endArrow=none;html=1;rounded=0;" parent="1" edge="1">
          <mxGeometry width="50" height="50" relative="1" as="geometry">
            <mxPoint x="840" y="420" as="sourcePoint" />
            <mxPoint x="840" y="260" as="targetPoint" />
            <Array as="points" />
          </mxGeometry>
        </mxCell>
        <mxCell id="lGC51vEPt79-bzWgV6Nz-21" value="" style="endArrow=none;html=1;rounded=0;" parent="1" edge="1">
          <mxGeometry width="50" height="50" relative="1" as="geometry">
            <mxPoint x="880" y="420" as="sourcePoint" />
            <mxPoint x="880" y="260" as="targetPoint" />
            <Array as="points" />
          </mxGeometry>
        </mxCell>
        <mxCell id="lGC51vEPt79-bzWgV6Nz-22" value="" style="endArrow=none;html=1;rounded=0;" parent="1" edge="1">
          <mxGeometry width="50" height="50" relative="1" as="geometry">
            <mxPoint x="920" y="420" as="sourcePoint" />
            <mxPoint x="920" y="260" as="targetPoint" />
            <Array as="points" />
          </mxGeometry>
        </mxCell>
        <mxCell id="lGC51vEPt79-bzWgV6Nz-23" value="" style="endArrow=none;html=1;rounded=0;" parent="1" edge="1">
          <mxGeometry width="50" height="50" relative="1" as="geometry">
            <mxPoint x="960" y="420" as="sourcePoint" />
            <mxPoint x="960" y="260" as="targetPoint" />
            <Array as="points" />
          </mxGeometry>
        </mxCell>
        <mxCell id="lGC51vEPt79-bzWgV6Nz-24" value="" style="endArrow=none;html=1;rounded=0;" parent="1" edge="1">
          <mxGeometry width="50" height="50" relative="1" as="geometry">
            <mxPoint x="1000" y="420" as="sourcePoint" />
            <mxPoint x="1000" y="260" as="targetPoint" />
            <Array as="points" />
          </mxGeometry>
        </mxCell>
        <mxCell id="lGC51vEPt79-bzWgV6Nz-25" value="" style="endArrow=none;html=1;rounded=0;" parent="1" edge="1">
          <mxGeometry width="50" height="50" relative="1" as="geometry">
            <mxPoint x="1040" y="420" as="sourcePoint" />
            <mxPoint x="1040" y="260" as="targetPoint" />
            <Array as="points" />
          </mxGeometry>
        </mxCell>
        <mxCell id="lGC51vEPt79-bzWgV6Nz-26" value="" style="endArrow=none;html=1;rounded=0;" parent="1" edge="1">
          <mxGeometry width="50" height="50" relative="1" as="geometry">
            <mxPoint x="1080" y="420" as="sourcePoint" />
            <mxPoint x="1080" y="260" as="targetPoint" />
            <Array as="points" />
          </mxGeometry>
        </mxCell>
        <mxCell id="lGC51vEPt79-bzWgV6Nz-27" value="" style="endArrow=none;html=1;rounded=0;" parent="1" edge="1">
          <mxGeometry width="50" height="50" relative="1" as="geometry">
            <mxPoint x="1120.32" y="420" as="sourcePoint" />
            <mxPoint x="1120.32" y="260" as="targetPoint" />
            <Array as="points" />
          </mxGeometry>
        </mxCell>
        <mxCell id="lGC51vEPt79-bzWgV6Nz-28" value="" style="endArrow=none;html=1;rounded=0;" parent="1" edge="1">
          <mxGeometry width="50" height="50" relative="1" as="geometry">
            <mxPoint x="1160" y="420" as="sourcePoint" />
            <mxPoint x="1160" y="260" as="targetPoint" />
            <Array as="points" />
          </mxGeometry>
        </mxCell>
        <mxCell id="lGC51vEPt79-bzWgV6Nz-29" value="" style="endArrow=none;html=1;rounded=0;" parent="1" edge="1">
          <mxGeometry width="50" height="50" relative="1" as="geometry">
            <mxPoint x="1200" y="420" as="sourcePoint" />
            <mxPoint x="1200" y="260" as="targetPoint" />
            <Array as="points" />
          </mxGeometry>
        </mxCell>
        <mxCell id="lGC51vEPt79-bzWgV6Nz-30" value="" style="endArrow=none;html=1;rounded=0;" parent="1" edge="1">
          <mxGeometry width="50" height="50" relative="1" as="geometry">
            <mxPoint x="1240" y="420" as="sourcePoint" />
            <mxPoint x="1240" y="260" as="targetPoint" />
            <Array as="points" />
          </mxGeometry>
        </mxCell>
        <mxCell id="lGC51vEPt79-bzWgV6Nz-31" value="" style="endArrow=none;html=1;rounded=0;" parent="1" edge="1">
          <mxGeometry width="50" height="50" relative="1" as="geometry">
            <mxPoint x="1280" y="420" as="sourcePoint" />
            <mxPoint x="1280" y="260" as="targetPoint" />
            <Array as="points" />
          </mxGeometry>
        </mxCell>
        <mxCell id="lGC51vEPt79-bzWgV6Nz-32" value="A" style="text;html=1;strokeColor=none;fillColor=none;align=center;verticalAlign=middle;whiteSpace=wrap;rounded=0;" parent="1" vertex="1">
          <mxGeometry x="30" y="280" width="60" height="30" as="geometry" />
        </mxCell>
        <mxCell id="lGC51vEPt79-bzWgV6Nz-33" value="B" style="text;html=1;strokeColor=none;fillColor=none;align=center;verticalAlign=middle;whiteSpace=wrap;rounded=0;" parent="1" vertex="1">
          <mxGeometry x="30" y="310" width="60" height="30" as="geometry" />
        </mxCell>
        <mxCell id="lGC51vEPt79-bzWgV6Nz-34" value="C" style="text;html=1;strokeColor=none;fillColor=none;align=center;verticalAlign=middle;whiteSpace=wrap;rounded=0;" parent="1" vertex="1">
          <mxGeometry x="30" y="340" width="60" height="30" as="geometry" />
        </mxCell>
        <mxCell id="lGC51vEPt79-bzWgV6Nz-48" value="" style="whiteSpace=wrap;html=1;aspect=fixed;fillColor=#fff2cc;strokeColor=#d6b656;" parent="1" vertex="1">
          <mxGeometry x="310" y="150" width="40" height="40" as="geometry" />
        </mxCell>
        <mxCell id="lGC51vEPt79-bzWgV6Nz-49" value="" style="whiteSpace=wrap;html=1;aspect=fixed;fillColor=#f8cecc;strokeColor=#b85450;" parent="1" vertex="1">
          <mxGeometry x="310" y="110" width="40" height="40" as="geometry" />
        </mxCell>
        <mxCell id="lGC51vEPt79-bzWgV6Nz-50" value="" style="whiteSpace=wrap;html=1;aspect=fixed;fillColor=#d5e8d4;strokeColor=#82b366;" parent="1" vertex="1">
          <mxGeometry x="310" y="70" width="40" height="40" as="geometry" />
        </mxCell>
        <mxCell id="lGC51vEPt79-bzWgV6Nz-51" value="A =" style="text;html=1;strokeColor=none;fillColor=none;align=center;verticalAlign=middle;whiteSpace=wrap;rounded=0;" parent="1" vertex="1">
          <mxGeometry x="260" y="75" width="60" height="30" as="geometry" />
        </mxCell>
        <mxCell id="lGC51vEPt79-bzWgV6Nz-52" value="B =" style="text;html=1;strokeColor=none;fillColor=none;align=center;verticalAlign=middle;whiteSpace=wrap;rounded=0;" parent="1" vertex="1">
          <mxGeometry x="260" y="115" width="60" height="30" as="geometry" />
        </mxCell>
        <mxCell id="lGC51vEPt79-bzWgV6Nz-53" value="C =" style="text;html=1;strokeColor=none;fillColor=none;align=center;verticalAlign=middle;whiteSpace=wrap;rounded=0;" parent="1" vertex="1">
          <mxGeometry x="260" y="155" width="60" height="30" as="geometry" />
        </mxCell>
        <mxCell id="lGC51vEPt79-bzWgV6Nz-58" value="&lt;font style=&quot;font-size: 14px;&quot;&gt;EDF (Earliest Deadline First) Scheduling&lt;/font&gt;" style="text;html=1;strokeColor=none;fillColor=none;align=center;verticalAlign=middle;whiteSpace=wrap;rounded=0;" parent="1" vertex="1">
          <mxGeometry x="80" y="30" width="270" height="40" as="geometry" />
        </mxCell>
        <mxCell id="lGC51vEPt79-bzWgV6Nz-59" value="t=0" style="text;html=1;strokeColor=none;fillColor=none;align=center;verticalAlign=middle;whiteSpace=wrap;rounded=0;" parent="1" vertex="1">
          <mxGeometry x="60" y="420" width="40" height="30" as="geometry" />
        </mxCell>
        <mxCell id="lGC51vEPt79-bzWgV6Nz-60" value="1" style="text;html=1;strokeColor=none;fillColor=none;align=center;verticalAlign=middle;whiteSpace=wrap;rounded=0;" parent="1" vertex="1">
          <mxGeometry x="110" y="420" width="20" height="30" as="geometry" />
        </mxCell>
        <mxCell id="lGC51vEPt79-bzWgV6Nz-61" value="2" style="text;html=1;strokeColor=none;fillColor=none;align=center;verticalAlign=middle;whiteSpace=wrap;rounded=0;" parent="1" vertex="1">
          <mxGeometry x="150" y="421" width="20" height="30" as="geometry" />
        </mxCell>
        <mxCell id="lGC51vEPt79-bzWgV6Nz-62" value="3" style="text;html=1;strokeColor=none;fillColor=none;align=center;verticalAlign=middle;whiteSpace=wrap;rounded=0;" parent="1" vertex="1">
          <mxGeometry x="190" y="420" width="20" height="30" as="geometry" />
        </mxCell>
        <mxCell id="lGC51vEPt79-bzWgV6Nz-63" value="4" style="text;html=1;strokeColor=none;fillColor=none;align=center;verticalAlign=middle;whiteSpace=wrap;rounded=0;" parent="1" vertex="1">
          <mxGeometry x="230" y="420" width="20" height="30" as="geometry" />
        </mxCell>
        <mxCell id="lGC51vEPt79-bzWgV6Nz-64" value="5" style="text;html=1;strokeColor=none;fillColor=none;align=center;verticalAlign=middle;whiteSpace=wrap;rounded=0;" parent="1" vertex="1">
          <mxGeometry x="270" y="420" width="20" height="30" as="geometry" />
        </mxCell>
        <mxCell id="lGC51vEPt79-bzWgV6Nz-65" value="6" style="text;html=1;strokeColor=none;fillColor=none;align=center;verticalAlign=middle;whiteSpace=wrap;rounded=0;" parent="1" vertex="1">
          <mxGeometry x="310" y="420" width="20" height="30" as="geometry" />
        </mxCell>
        <mxCell id="lGC51vEPt79-bzWgV6Nz-66" value="7" style="text;html=1;strokeColor=none;fillColor=none;align=center;verticalAlign=middle;whiteSpace=wrap;rounded=0;" parent="1" vertex="1">
          <mxGeometry x="350" y="420" width="20" height="30" as="geometry" />
        </mxCell>
        <mxCell id="lGC51vEPt79-bzWgV6Nz-67" value="8" style="text;html=1;strokeColor=none;fillColor=none;align=center;verticalAlign=middle;whiteSpace=wrap;rounded=0;" parent="1" vertex="1">
          <mxGeometry x="390" y="420" width="20" height="30" as="geometry" />
        </mxCell>
        <mxCell id="lGC51vEPt79-bzWgV6Nz-68" value="9" style="text;html=1;strokeColor=none;fillColor=none;align=center;verticalAlign=middle;whiteSpace=wrap;rounded=0;" parent="1" vertex="1">
          <mxGeometry x="430" y="420" width="20" height="30" as="geometry" />
        </mxCell>
        <mxCell id="lGC51vEPt79-bzWgV6Nz-69" value="10" style="text;html=1;strokeColor=none;fillColor=none;align=center;verticalAlign=middle;whiteSpace=wrap;rounded=0;" parent="1" vertex="1">
          <mxGeometry x="470" y="420" width="20" height="30" as="geometry" />
        </mxCell>
        <mxCell id="lGC51vEPt79-bzWgV6Nz-70" value="11" style="text;html=1;strokeColor=none;fillColor=none;align=center;verticalAlign=middle;whiteSpace=wrap;rounded=0;" parent="1" vertex="1">
          <mxGeometry x="510" y="420" width="20" height="30" as="geometry" />
        </mxCell>
        <mxCell id="lGC51vEPt79-bzWgV6Nz-71" value="12" style="text;html=1;strokeColor=none;fillColor=none;align=center;verticalAlign=middle;whiteSpace=wrap;rounded=0;" parent="1" vertex="1">
          <mxGeometry x="550" y="420" width="20" height="30" as="geometry" />
        </mxCell>
        <mxCell id="lGC51vEPt79-bzWgV6Nz-72" value="13" style="text;html=1;strokeColor=none;fillColor=none;align=center;verticalAlign=middle;whiteSpace=wrap;rounded=0;" parent="1" vertex="1">
          <mxGeometry x="590" y="420" width="20" height="30" as="geometry" />
        </mxCell>
        <mxCell id="lGC51vEPt79-bzWgV6Nz-73" value="14" style="text;html=1;strokeColor=none;fillColor=none;align=center;verticalAlign=middle;whiteSpace=wrap;rounded=0;" parent="1" vertex="1">
          <mxGeometry x="630" y="420" width="20" height="30" as="geometry" />
        </mxCell>
        <mxCell id="lGC51vEPt79-bzWgV6Nz-74" value="15" style="text;html=1;strokeColor=none;fillColor=none;align=center;verticalAlign=middle;whiteSpace=wrap;rounded=0;" parent="1" vertex="1">
          <mxGeometry x="670" y="420" width="20" height="30" as="geometry" />
        </mxCell>
        <mxCell id="lGC51vEPt79-bzWgV6Nz-75" value="16" style="text;html=1;strokeColor=none;fillColor=none;align=center;verticalAlign=middle;whiteSpace=wrap;rounded=0;" parent="1" vertex="1">
          <mxGeometry x="710" y="420" width="20" height="30" as="geometry" />
        </mxCell>
        <mxCell id="lGC51vEPt79-bzWgV6Nz-76" value="17" style="text;html=1;strokeColor=none;fillColor=none;align=center;verticalAlign=middle;whiteSpace=wrap;rounded=0;" parent="1" vertex="1">
          <mxGeometry x="750" y="420" width="20" height="30" as="geometry" />
        </mxCell>
        <mxCell id="lGC51vEPt79-bzWgV6Nz-77" value="18" style="text;html=1;strokeColor=none;fillColor=none;align=center;verticalAlign=middle;whiteSpace=wrap;rounded=0;" parent="1" vertex="1">
          <mxGeometry x="790" y="420" width="20" height="30" as="geometry" />
        </mxCell>
        <mxCell id="lGC51vEPt79-bzWgV6Nz-78" value="19" style="text;html=1;strokeColor=none;fillColor=none;align=center;verticalAlign=middle;whiteSpace=wrap;rounded=0;" parent="1" vertex="1">
          <mxGeometry x="830" y="420" width="20" height="30" as="geometry" />
        </mxCell>
        <mxCell id="lGC51vEPt79-bzWgV6Nz-79" value="20" style="text;html=1;strokeColor=none;fillColor=none;align=center;verticalAlign=middle;whiteSpace=wrap;rounded=0;" parent="1" vertex="1">
          <mxGeometry x="870" y="420" width="20" height="30" as="geometry" />
        </mxCell>
        <mxCell id="lGC51vEPt79-bzWgV6Nz-80" value="21" style="text;html=1;strokeColor=none;fillColor=none;align=center;verticalAlign=middle;whiteSpace=wrap;rounded=0;" parent="1" vertex="1">
          <mxGeometry x="910" y="420" width="20" height="30" as="geometry" />
        </mxCell>
        <mxCell id="lGC51vEPt79-bzWgV6Nz-81" value="22" style="text;html=1;strokeColor=none;fillColor=none;align=center;verticalAlign=middle;whiteSpace=wrap;rounded=0;" parent="1" vertex="1">
          <mxGeometry x="950" y="420" width="20" height="30" as="geometry" />
        </mxCell>
        <mxCell id="lGC51vEPt79-bzWgV6Nz-82" value="23" style="text;html=1;strokeColor=none;fillColor=none;align=center;verticalAlign=middle;whiteSpace=wrap;rounded=0;" parent="1" vertex="1">
          <mxGeometry x="990" y="420" width="20" height="30" as="geometry" />
        </mxCell>
        <mxCell id="lGC51vEPt79-bzWgV6Nz-83" value="24" style="text;html=1;strokeColor=none;fillColor=none;align=center;verticalAlign=middle;whiteSpace=wrap;rounded=0;" parent="1" vertex="1">
          <mxGeometry x="1030.5" y="420" width="20" height="30" as="geometry" />
        </mxCell>
        <mxCell id="lGC51vEPt79-bzWgV6Nz-84" value="25" style="text;html=1;strokeColor=none;fillColor=none;align=center;verticalAlign=middle;whiteSpace=wrap;rounded=0;" parent="1" vertex="1">
          <mxGeometry x="1070.5" y="420" width="20" height="30" as="geometry" />
        </mxCell>
        <mxCell id="lGC51vEPt79-bzWgV6Nz-85" value="26" style="text;html=1;strokeColor=none;fillColor=none;align=center;verticalAlign=middle;whiteSpace=wrap;rounded=0;" parent="1" vertex="1">
          <mxGeometry x="1110.5" y="420" width="20" height="30" as="geometry" />
        </mxCell>
        <mxCell id="lGC51vEPt79-bzWgV6Nz-86" value="27" style="text;html=1;strokeColor=none;fillColor=none;align=center;verticalAlign=middle;whiteSpace=wrap;rounded=0;" parent="1" vertex="1">
          <mxGeometry x="1150.5" y="420" width="20" height="30" as="geometry" />
        </mxCell>
        <mxCell id="lGC51vEPt79-bzWgV6Nz-87" value="28" style="text;html=1;strokeColor=none;fillColor=none;align=center;verticalAlign=middle;whiteSpace=wrap;rounded=0;" parent="1" vertex="1">
          <mxGeometry x="1190.5" y="420" width="20" height="30" as="geometry" />
        </mxCell>
        <mxCell id="lGC51vEPt79-bzWgV6Nz-88" value="29" style="text;html=1;strokeColor=none;fillColor=none;align=center;verticalAlign=middle;whiteSpace=wrap;rounded=0;" parent="1" vertex="1">
          <mxGeometry x="1230.5" y="420" width="20" height="30" as="geometry" />
        </mxCell>
        <mxCell id="lGC51vEPt79-bzWgV6Nz-89" value="30" style="text;html=1;strokeColor=none;fillColor=none;align=center;verticalAlign=middle;whiteSpace=wrap;rounded=0;" parent="1" vertex="1">
          <mxGeometry x="1270.5" y="420" width="20" height="30" as="geometry" />
        </mxCell>
        <mxCell id="lGC51vEPt79-bzWgV6Nz-95" value="Task" style="swimlane;whiteSpace=wrap;html=1;" parent="1" vertex="1">
          <mxGeometry x="90" y="77.5" width="50" height="142.5" as="geometry" />
        </mxCell>
        <mxCell id="lGC51vEPt79-bzWgV6Nz-96" value="A" style="text;html=1;strokeColor=none;fillColor=none;align=center;verticalAlign=middle;whiteSpace=wrap;rounded=0;" parent="lGC51vEPt79-bzWgV6Nz-95" vertex="1">
          <mxGeometry x="-5" y="22.5" width="60" height="30" as="geometry" />
        </mxCell>
        <mxCell id="lGC51vEPt79-bzWgV6Nz-97" value="B" style="text;html=1;strokeColor=none;fillColor=none;align=center;verticalAlign=middle;whiteSpace=wrap;rounded=0;" parent="lGC51vEPt79-bzWgV6Nz-95" vertex="1">
          <mxGeometry x="-5" y="52.5" width="60" height="30" as="geometry" />
        </mxCell>
        <mxCell id="lGC51vEPt79-bzWgV6Nz-98" value="C" style="text;html=1;strokeColor=none;fillColor=none;align=center;verticalAlign=middle;whiteSpace=wrap;rounded=0;" parent="lGC51vEPt79-bzWgV6Nz-95" vertex="1">
          <mxGeometry x="-5" y="82.5" width="60" height="30" as="geometry" />
        </mxCell>
        <mxCell id="lGC51vEPt79-bzWgV6Nz-99" value="D" style="text;html=1;strokeColor=none;fillColor=none;align=center;verticalAlign=middle;whiteSpace=wrap;rounded=0;" parent="lGC51vEPt79-bzWgV6Nz-95" vertex="1">
          <mxGeometry x="-5" y="112.5" width="60" height="30" as="geometry" />
        </mxCell>
        <mxCell id="lGC51vEPt79-bzWgV6Nz-110" value="T=D" style="swimlane;whiteSpace=wrap;html=1;" parent="1" vertex="1">
          <mxGeometry x="140" y="77.5" width="50" height="142.5" as="geometry" />
        </mxCell>
        <mxCell id="lGC51vEPt79-bzWgV6Nz-111" value="10" style="text;html=1;strokeColor=none;fillColor=none;align=center;verticalAlign=middle;whiteSpace=wrap;rounded=0;" parent="lGC51vEPt79-bzWgV6Nz-110" vertex="1">
          <mxGeometry x="-5" y="22.5" width="60" height="30" as="geometry" />
        </mxCell>
        <mxCell id="lGC51vEPt79-bzWgV6Nz-112" value="14" style="text;html=1;strokeColor=none;fillColor=none;align=center;verticalAlign=middle;whiteSpace=wrap;rounded=0;" parent="lGC51vEPt79-bzWgV6Nz-110" vertex="1">
          <mxGeometry x="-5" y="52.5" width="60" height="30" as="geometry" />
        </mxCell>
        <mxCell id="lGC51vEPt79-bzWgV6Nz-113" value="13" style="text;html=1;strokeColor=none;fillColor=none;align=center;verticalAlign=middle;whiteSpace=wrap;rounded=0;" parent="lGC51vEPt79-bzWgV6Nz-110" vertex="1">
          <mxGeometry x="-5" y="82.5" width="60" height="30" as="geometry" />
        </mxCell>
        <mxCell id="lGC51vEPt79-bzWgV6Nz-114" value="8" style="text;html=1;strokeColor=none;fillColor=none;align=center;verticalAlign=middle;whiteSpace=wrap;rounded=0;" parent="lGC51vEPt79-bzWgV6Nz-110" vertex="1">
          <mxGeometry x="-5" y="112.5" width="60" height="30" as="geometry" />
        </mxCell>
        <mxCell id="lGC51vEPt79-bzWgV6Nz-115" value="C" style="swimlane;whiteSpace=wrap;html=1;" parent="1" vertex="1">
          <mxGeometry x="190" y="77.5" width="50" height="142.5" as="geometry" />
        </mxCell>
        <mxCell id="lGC51vEPt79-bzWgV6Nz-116" value="3" style="text;html=1;strokeColor=none;fillColor=none;align=center;verticalAlign=middle;whiteSpace=wrap;rounded=0;" parent="lGC51vEPt79-bzWgV6Nz-115" vertex="1">
          <mxGeometry x="-5" y="22.5" width="60" height="30" as="geometry" />
        </mxCell>
        <mxCell id="lGC51vEPt79-bzWgV6Nz-117" value="3" style="text;html=1;strokeColor=none;fillColor=none;align=center;verticalAlign=middle;whiteSpace=wrap;rounded=0;" parent="lGC51vEPt79-bzWgV6Nz-115" vertex="1">
          <mxGeometry x="-5" y="52.5" width="60" height="30" as="geometry" />
        </mxCell>
        <mxCell id="lGC51vEPt79-bzWgV6Nz-118" value="2" style="text;html=1;strokeColor=none;fillColor=none;align=center;verticalAlign=middle;whiteSpace=wrap;rounded=0;" parent="lGC51vEPt79-bzWgV6Nz-115" vertex="1">
          <mxGeometry x="-5" y="82.5" width="60" height="30" as="geometry" />
        </mxCell>
        <mxCell id="lGC51vEPt79-bzWgV6Nz-119" value="2" style="text;html=1;strokeColor=none;fillColor=none;align=center;verticalAlign=middle;whiteSpace=wrap;rounded=0;" parent="lGC51vEPt79-bzWgV6Nz-115" vertex="1">
          <mxGeometry x="-5" y="112.5" width="60" height="30" as="geometry" />
        </mxCell>
        <mxCell id="lGC51vEPt79-bzWgV6Nz-125" value="" style="whiteSpace=wrap;html=1;aspect=fixed;fillColor=#dae8fc;strokeColor=#6c8ebf;" parent="1" vertex="1">
          <mxGeometry x="310" y="190" width="40" height="40" as="geometry" />
        </mxCell>
        <mxCell id="lGC51vEPt79-bzWgV6Nz-126" value="D =" style="text;html=1;strokeColor=none;fillColor=none;align=center;verticalAlign=middle;whiteSpace=wrap;rounded=0;" parent="1" vertex="1">
          <mxGeometry x="260" y="195" width="60" height="30" as="geometry" />
        </mxCell>
        <mxCell id="lGC51vEPt79-bzWgV6Nz-127" value="D" style="text;html=1;strokeColor=none;fillColor=none;align=center;verticalAlign=middle;whiteSpace=wrap;rounded=0;" parent="1" vertex="1">
          <mxGeometry x="30" y="370" width="60" height="30" as="geometry" />
        </mxCell>
        <mxCell id="lGC51vEPt79-bzWgV6Nz-128" value="" style="endArrow=classic;html=1;rounded=0;fillColor=#f8cecc;strokeColor=#FF0000;" parent="1" edge="1">
          <mxGeometry width="50" height="50" relative="1" as="geometry">
            <mxPoint x="399.82" y="400" as="sourcePoint" />
            <mxPoint x="400" y="380" as="targetPoint" />
          </mxGeometry>
        </mxCell>
        <mxCell id="k8w1OeWW7QCH533B3LMb-2" value="" style="endArrow=classic;html=1;rounded=0;fillColor=#f8cecc;strokeColor=#FF0000;" parent="1" edge="1">
          <mxGeometry width="50" height="50" relative="1" as="geometry">
            <mxPoint x="720" y="400" as="sourcePoint" />
            <mxPoint x="720" y="380" as="targetPoint" />
          </mxGeometry>
        </mxCell>
        <mxCell id="k8w1OeWW7QCH533B3LMb-3" value="" style="endArrow=classic;html=1;rounded=0;fillColor=#f8cecc;strokeColor=#FF0000;" parent="1" edge="1">
          <mxGeometry width="50" height="50" relative="1" as="geometry">
            <mxPoint x="1040.24" y="400" as="sourcePoint" />
            <mxPoint x="1040" y="380" as="targetPoint" />
          </mxGeometry>
        </mxCell>
        <mxCell id="k8w1OeWW7QCH533B3LMb-4" value="" style="endArrow=classic;html=1;rounded=0;fillColor=#f8cecc;strokeColor=#FF0000;" parent="1" edge="1">
          <mxGeometry width="50" height="50" relative="1" as="geometry">
            <mxPoint x="599.82" y="370" as="sourcePoint" />
            <mxPoint x="600" y="350" as="targetPoint" />
          </mxGeometry>
        </mxCell>
        <mxCell id="k8w1OeWW7QCH533B3LMb-5" value="" style="endArrow=classic;html=1;rounded=0;fillColor=#f8cecc;strokeColor=#FF0000;" parent="1" edge="1">
          <mxGeometry width="50" height="50" relative="1" as="geometry">
            <mxPoint x="1120.32" y="370" as="sourcePoint" />
            <mxPoint x="1120" y="350" as="targetPoint" />
          </mxGeometry>
        </mxCell>
        <mxCell id="k8w1OeWW7QCH533B3LMb-6" value="" style="endArrow=classic;html=1;rounded=0;fillColor=#f8cecc;strokeColor=#FF0000;" parent="1" edge="1">
          <mxGeometry width="50" height="50" relative="1" as="geometry">
            <mxPoint x="639.82" y="340" as="sourcePoint" />
            <mxPoint x="640" y="320" as="targetPoint" />
          </mxGeometry>
        </mxCell>
        <mxCell id="k8w1OeWW7QCH533B3LMb-7" value="" style="endArrow=classic;html=1;rounded=0;fillColor=#f8cecc;strokeColor=#FF0000;" parent="1" edge="1">
          <mxGeometry width="50" height="50" relative="1" as="geometry">
            <mxPoint x="1200.32" y="340" as="sourcePoint" />
            <mxPoint x="1200" y="320" as="targetPoint" />
          </mxGeometry>
        </mxCell>
        <mxCell id="k8w1OeWW7QCH533B3LMb-8" value="" style="endArrow=classic;html=1;rounded=0;fillColor=#f8cecc;strokeColor=#FF0000;" parent="1" edge="1">
          <mxGeometry width="50" height="50" relative="1" as="geometry">
            <mxPoint x="479.64" y="310" as="sourcePoint" />
            <mxPoint x="480" y="290" as="targetPoint" />
          </mxGeometry>
        </mxCell>
        <mxCell id="k8w1OeWW7QCH533B3LMb-9" value="" style="endArrow=classic;html=1;rounded=0;fillColor=#f8cecc;strokeColor=#FF0000;" parent="1" edge="1">
          <mxGeometry width="50" height="50" relative="1" as="geometry">
            <mxPoint x="879.82" y="310" as="sourcePoint" />
            <mxPoint x="880" y="290" as="targetPoint" />
          </mxGeometry>
        </mxCell>
        <mxCell id="k8w1OeWW7QCH533B3LMb-10" value="" style="endArrow=classic;html=1;rounded=0;fillColor=#f8cecc;strokeColor=#FF0000;" parent="1" edge="1">
          <mxGeometry width="50" height="50" relative="1" as="geometry">
            <mxPoint x="1280.32" y="310" as="sourcePoint" />
            <mxPoint x="1280" y="290" as="targetPoint" />
          </mxGeometry>
        </mxCell>
        <mxCell id="k8w1OeWW7QCH533B3LMb-19" value="" style="endArrow=none;html=1;rounded=0;exitX=0.25;exitY=0;exitDx=0;exitDy=0;" parent="1" source="lGC51vEPt79-bzWgV6Nz-33" edge="1">
          <mxGeometry width="50" height="50" relative="1" as="geometry">
            <mxPoint x="80" y="310" as="sourcePoint" />
            <mxPoint x="1280" y="310" as="targetPoint" />
          </mxGeometry>
        </mxCell>
        <mxCell id="k8w1OeWW7QCH533B3LMb-20" value="" style="endArrow=none;html=1;rounded=0;exitX=0.25;exitY=0;exitDx=0;exitDy=0;" parent="1" source="lGC51vEPt79-bzWgV6Nz-34" edge="1">
          <mxGeometry width="50" height="50" relative="1" as="geometry">
            <mxPoint x="80" y="340" as="sourcePoint" />
            <mxPoint x="1280" y="340" as="targetPoint" />
          </mxGeometry>
        </mxCell>
        <mxCell id="k8w1OeWW7QCH533B3LMb-21" value="" style="endArrow=none;html=1;rounded=0;exitX=0.25;exitY=0;exitDx=0;exitDy=0;" parent="1" source="lGC51vEPt79-bzWgV6Nz-127" edge="1">
          <mxGeometry width="50" height="50" relative="1" as="geometry">
            <mxPoint x="80" y="368.82" as="sourcePoint" />
            <mxPoint x="1280" y="368.82" as="targetPoint" />
          </mxGeometry>
        </mxCell>
        <mxCell id="k8w1OeWW7QCH533B3LMb-22" value="" style="endArrow=none;html=1;rounded=0;exitX=0.25;exitY=1;exitDx=0;exitDy=0;" parent="1" source="lGC51vEPt79-bzWgV6Nz-127" edge="1">
          <mxGeometry width="50" height="50" relative="1" as="geometry">
            <mxPoint x="80" y="400" as="sourcePoint" />
            <mxPoint x="1280" y="400" as="targetPoint" />
          </mxGeometry>
        </mxCell>
        <mxCell id="k8w1OeWW7QCH533B3LMb-23" value="" style="endArrow=none;html=1;rounded=0;exitX=0.25;exitY=0;exitDx=0;exitDy=0;" parent="1" source="lGC51vEPt79-bzWgV6Nz-32" edge="1">
          <mxGeometry width="50" height="50" relative="1" as="geometry">
            <mxPoint x="80" y="280" as="sourcePoint" />
            <mxPoint x="1280" y="280" as="targetPoint" />
          </mxGeometry>
        </mxCell>
      </root>
    </mxGraphModel>
  </diagram>
</mxfile>
